<?xml version="1.0" encoding="UTF-8" standalone="no"?>
<!-- Created with Inkscape (http://www.inkscape.org/) -->

<svg
   xmlns:dc="http://purl.org/dc/elements/1.1/"
   xmlns:cc="http://creativecommons.org/ns#"
   xmlns:rdf="http://www.w3.org/1999/02/22-rdf-syntax-ns#"
   xmlns:svg="http://www.w3.org/2000/svg"
   xmlns="http://www.w3.org/2000/svg"
   xmlns:sodipodi="http://sodipodi.sourceforge.net/DTD/sodipodi-0.dtd"
   xmlns:inkscape="http://www.inkscape.org/namespaces/inkscape"
   width="744.09448819"
   height="1052.3622047"
   id="svg2"
   version="1.1"
   inkscape:version="0.48.2 r9819"
   sodipodi:docname="Control Icons.svg"
   enable-background="new">
  <defs
     id="defs4">
    <inkscape:perspective
       sodipodi:type="inkscape:persp3d"
       inkscape:vp_x="0 : 526.18109 : 1"
       inkscape:vp_y="0 : 1000 : 0"
       inkscape:vp_z="744.09448 : 526.18109 : 1"
       inkscape:persp3d-origin="372.04724 : 350.78739 : 1"
       id="perspective3021" />
  </defs>
  <sodipodi:namedview
     id="base"
     pagecolor="#ffffff"
     bordercolor="#666666"
     borderopacity="1.0"
     inkscape:pageopacity="0.0"
     inkscape:pageshadow="2"
     inkscape:zoom="0.7"
     inkscape:cx="204.74668"
     inkscape:cy="648.96659"
     inkscape:document-units="px"
     inkscape:current-layer="layer2"
     showgrid="false"
     inkscape:window-width="1920"
     inkscape:window-height="1032"
     inkscape:window-x="1920"
     inkscape:window-y="22"
     inkscape:window-maximized="1"
     showguides="true"
     inkscape:guide-bbox="true"
     showborder="false" />
  <metadata
     id="metadata7">
    <rdf:RDF>
      <cc:Work
         rdf:about="">
        <dc:format>image/svg+xml</dc:format>
        <dc:type
           rdf:resource="http://purl.org/dc/dcmitype/StillImage" />
        <dc:title />
      </cc:Work>
    </rdf:RDF>
  </metadata>
  <g
     inkscape:groupmode="layer"
     id="layer3"
     inkscape:label="Building Blocks"
     style="display:none">
    <rect
       ry="4.6428571"
       rx="4.3303614"
       y="786.00397"
       x="231.97188"
       height="139.40105"
       width="94.954338"
       id="rect3959"
       style="fill:#fff9f9;fill-opacity:1;stroke:#00a8ee;stroke-width:2;stroke-miterlimit:4;stroke-opacity:1;stroke-dasharray:none;display:inline" />
    <path
       sodipodi:nodetypes="cczcsssc"
       inkscape:connector-curvature="0"
       id="path3962"
       d="m 375.608,785.30409 c 2.61652,0 87.9092,61.97395 87.9092,63.96901 0,0 2.62793,2.9732 2.71478,5.73151 0.0868,2.75832 -2.71478,5.60297 -2.71478,5.60297 0,2.22447 -84.78438,64.09756 -87.9092,64.09756 -2.39902,0 -4.33036,-2.07072 -4.33036,-4.64286 l 0,-130.11533 c 0,-2.57215 1.93134,-4.64286 4.33036,-4.64286 z"
       style="fill:#fff9f9;fill-opacity:1;stroke:#00a8ee;stroke-width:2;stroke-miterlimit:4;stroke-opacity:1;display:inline" />
    <path
       inkscape:connector-curvature="0"
       id="path3971"
       d="m 594.47008,750.74792 c -59.55496,0 -107.84375,48.25754 -107.84375,107.8125 0,59.55496 48.28879,107.84375 107.84375,107.84375 59.55496,0 107.84375,-48.28879 107.84375,-107.84375 0,-59.55496 -48.28879,-107.8125 -107.84375,-107.8125 z"
       style="fill:#000000;fill-opacity:0.78431373;fill-rule:evenodd;stroke:#000000;stroke-width:2;stroke-linecap:butt;stroke-linejoin:miter;stroke-miterlimit:4;stroke-opacity:1;stroke-dasharray:none;display:inline" />
  </g>
  <g
     inkscape:groupmode="layer"
     id="layer4"
     inkscape:label="Forward">
    <path
       style="fill:#000000;fill-opacity:0.78431373;fill-rule:evenodd;stroke:#000000;stroke-width:1.68035638;stroke-linecap:butt;stroke-linejoin:miter;stroke-miterlimit:4;stroke-opacity:1;stroke-dasharray:none;display:inline"
       d="m 584.3823,472.09375 c -14.80455,0 -28.86753,2.26105 -41.65625,6.3125 16.84536,19.01975 27.0625,44.03021 27.0625,71.4375 0,27.41569 -10.20792,52.4397 -27.0625,71.46875 12.78872,4.05362 26.8517,6.3125 41.65625,6.3125 58.30005,0 105.59376,-34.83651 105.59376,-77.78125 0,-42.94475 -47.2937,-77.75 -105.59375,-77.75 z m 57.4375,35.59375 18.09376,0 c 0.50293,0 0.90625,1.2561 0.90625,2.8125 l 0,78.71875 c 0,1.5564 -0.40332,2.8125 -0.90625,2.8125 l -18.09375,0 c -0.50295,0 -0.90625,-1.2561 -0.90625,-2.8125 l 0,-36.3125 c -0.16929,0.20247 -0.28125,0.3125 -0.28125,0.3125 0,1.33952 -51.0558,38.625 -52.9375,38.625 -1.44463,0 -2.625,-1.26362 -2.625,-2.8125 l 0,-78.34375 c 0,-1.54889 1.18037,-2.8125 2.625,-2.8125 1.57561,0 52.9375,37.32987 52.9375,38.53125 0,0 0.10224,0.16884 0.28125,0.40625 l 0,-36.3125 c 0,-1.5564 0.4033,-2.8125 0.90625,-2.8125 z"
       id="path3974"
       inkscape:connector-curvature="0"/>
  </g>
  <g
     inkscape:groupmode="layer"
     id="layer5"
     inkscape:label="Backward">
    <path
       style="fill:#000000;fill-opacity:0.78431373;fill-rule:evenodd;stroke:#000000;stroke-width:1.68035638;stroke-linecap:butt;stroke-linejoin:miter;stroke-miterlimit:4;stroke-opacity:1;stroke-dasharray:none;display:inline"
       d="m 288.31981,472.09375 c 14.80454,0 28.86753,2.26105 41.65625,6.3125 -16.84537,19.01975 -27.0625,44.03021 -27.0625,71.4375 0,27.41569 10.20791,52.4397 27.0625,71.46875 -12.78872,4.05362 -26.85171,6.3125 -41.65625,6.3125 -58.30005,0 -105.59375,-34.83651 -105.59375,-77.78125 0,-42.94475 47.2937,-77.75 105.59375,-77.75 z m -57.4375,35.59375 -18.09375,0 c -0.50295,0 -0.90625,1.2561 -0.90625,2.8125 l 0,78.71875 c 0,1.5564 0.4033,2.8125 0.90625,2.8125 l 18.09375,0 c 0.50294,0 0.90625,-1.2561 0.90625,-2.8125 l 0,-36.3125 c 0.16929,0.20247 0.28125,0.3125 0.28125,0.3125 0,1.33952 51.05579,38.625 52.9375,38.625 1.44463,0 2.625,-1.26362 2.625,-2.8125 l 0,-78.34375 c 0,-1.54889 -1.18037,-2.8125 -2.625,-2.8125 -1.57561,0 -52.9375,37.32987 -52.9375,38.53125 0,0 -0.10224,0.16884 -0.28125,0.40625 l 0,-36.3125 c 0,-1.5564 -0.40331,-2.8125 -0.90625,-2.8125 z"
       id="path3974-1"
       inkscape:connector-curvature="0" />
  </g>
  <g
     inkscape:label="Play"
     inkscape:groupmode="layer"
     id="layer1"
     style="display:inline">
    <path
       style="fill:#000000;fill-opacity:0.78431373;fill-rule:evenodd;stroke:#000000;stroke-width:2;stroke-linecap:butt;stroke-linejoin:miter;stroke-miterlimit:4;stroke-opacity:1;stroke-dasharray:none"
       d="m 436.35105,442.03125 c -59.55496,0 -107.84375,48.25754 -107.84375,107.8125 0,59.55496 48.28879,107.84375 107.84375,107.84375 59.55496,0 107.84376,-48.28879 107.84376,-107.84375 0,-59.55496 -48.28879,-107.8125 -107.84375,-107.8125 z m -35.125,38.125 c 2.61653,0 87.90626,61.97369 87.90626,63.96875 0,0 2.63189,2.99169 2.71875,5.75 0.0868,2.75832 -2.71875,5.59375 -2.71875,5.59375 0,2.22447 -84.78143,64.09375 -87.90625,64.09375 -2.39902,0 -4.34375,-2.05286 -4.34375,-4.625 l 0,-130.125 c 0,-2.57215 1.94473,-4.65625 4.34375,-4.65625 z"
       id="path3014-1"
       inkscape:connector-curvature="0" />
  </g>
  <g
     inkscape:groupmode="layer"
     id="layer2"
     inkscape:label="Pause"
     style="display:inline">
    <path
       style="fill:#000000;fill-opacity:0.78431373;fill-rule:evenodd;stroke:#000000;stroke-width:2;stroke-linecap:butt;stroke-linejoin:miter;stroke-miterlimit:4;stroke-opacity:1;stroke-dasharray:none"
       d="m 436.35106,202.03125 c -59.55496,0 -107.84375,48.25754 -107.84375,107.8125 0,59.55496 48.28879,107.84375 107.84375,107.84375 59.55497,0 107.84375,-48.28879 107.84375,-107.84375 0,-59.55496 -48.28878,-107.8125 -107.84375,-107.8125 z m -43.15625,37.8125 26.3125,0 c 2.39902,0 4.34375,2.08411 4.34375,4.65625 l 0,130.71875 c 0,2.57214 -1.94473,4.625 -4.34375,4.625 l -26.3125,0 c -2.39902,0 -4.34375,-2.05286 -4.34375,-4.625 l 0,-130.71875 c 0,-2.57214 1.94473,-4.65625 4.34375,-4.65625 z m 60,0 26.3125,0 c 2.39902,0 4.34375,2.08411 4.34375,4.65625 l 0,130.71875 c 0,2.57214 -1.94473,4.625 -4.34375,4.625 l -26.3125,0 c -2.39901,0 -4.34375,-2.05286 -4.34375,-4.625 l 0,-130.71875 c 0,-2.57214 1.94474,-4.65625 4.34375,-4.65625 z"
       id="path3014"
       inkscape:connector-curvature="0" />
  </g>
</svg>
